<svg width="168" height="52" viewBox="0 0 168 52" fill="none" xmlns="http://www.w3.org/2000/svg">
<g clip-path="url(#clip0_4_2)">
<mask id="mask0_4_2" style="mask-type:luminance" maskUnits="userSpaceOnUse" x="-2" y="9" width="168" height="52">
<path d="M166 9H-2V61H166V9Z" fill="white"/>
</mask>
<g mask="url(#mask0_4_2)">
<path fill-rule="evenodd" clip-rule="evenodd" d="M106.186 24.7923C99.833 24.8669 90.1066 24.5407 76.6837 24.3473C68.9533 24.236 61.6251 24.1427 57.6305 24.1385C47.0676 24.1099 38.3461 24.6658 31.1459 25.5168C26.9273 26.0155 23.236 26.6272 19.9974 27.2838C15.0049 28.296 11.1059 29.4453 8.0648 30.6017C-0.00924969 33.6717 -2 36.7801 -2 36.7801C-2 36.7801 -0.33323 33.4038 7.62329 29.8452C10.6309 28.5 14.538 27.1366 19.5878 25.9549C22.8501 25.1914 26.595 24.5216 30.8748 23.967C38.1375 23.0257 46.9548 22.4565 57.6305 22.4276C61.6318 22.4233 68.9732 22.4777 76.7177 22.5957C86.4197 22.7436 97.166 22.8832 103.038 22.6241C105.239 22.5263 107.107 21.2326 107.644 19.4341C108.125 17.8224 108.671 15.9974 108.874 15.3182C108.92 15.1643 109.099 15.0666 109.285 15.0947C111.27 15.3953 121.606 16.9613 123.71 17.2801C123.808 17.2949 123.894 17.343 123.948 17.4131C124.002 17.4831 124.018 17.5689 123.995 17.6499C123.619 18.7325 121.863 22.341 114.799 23.9002C110.268 24.9003 109.078 24.7584 106.186 24.7923Z" fill="white"/>
<path fill-rule="evenodd" clip-rule="evenodd" d="M63.6581 21.3554C63.6581 21.3554 69.7123 16.8922 76.8579 13.564C80.1724 12.02 83.7282 10.7486 86.9912 10.2079C91.1476 9.55723 95.07 9.18248 98.793 9.05399C105.273 8.83028 111.144 9.32152 116.577 10.1907C124.413 11.4447 131.334 13.5137 137.873 15.4836C145.095 17.6595 154.197 19.557 158.32 19.6607C159.85 19.6992 162.137 19.5889 162.137 19.5889C162.117 21.3717 161.239 22.3293 160.257 23.1871C160.257 23.1871 144.549 19.3595 137.175 17.1143C130.735 15.1532 123.921 13.0915 116.203 11.8104C110.907 10.9312 105.183 10.4313 98.853 10.5664C95.2011 10.6443 91.3466 10.9209 87.2558 11.4829C84.0915 11.8888 80.6352 13.0317 77.3531 14.3677C70.0498 17.3405 63.6581 21.3554 63.6581 21.3554Z" fill="white"/>
<path fill-rule="evenodd" clip-rule="evenodd" d="M154.237 23.6932C151.981 22.8387 144.668 20.5056 144.668 20.5056C144.668 20.5056 154.481 22.7811 157.01 23.3521C159.041 23.811 162.009 24.5064 163.815 25.7556C165.622 27.0048 165.986 28.7489 165.986 28.7489C165.986 28.7489 159.078 28.9108 157.949 28.7514C157.168 28.6411 155.983 27.6236 155.989 27.6201C157.046 26.9714 158.645 25.3638 154.237 23.6932Z" fill="white"/>
</g>
<path d="M30.1357 34.8633L34.7939 45H32.3037L31.0586 42.29H27.1987L25.895 45H24.2397L29.0811 34.8633H30.1357ZM27.6602 41.3672H30.6484L29.1763 38.1592L27.6602 41.3672ZM36.1929 35.0684H38.6318V41.4551C38.6318 41.8359 38.6904 42.1948 38.8076 42.5317C38.9297 42.8687 39.1006 43.1641 39.3203 43.418C39.5449 43.667 39.8135 43.8647 40.126 44.0112C40.4434 44.1577 40.7998 44.231 41.1953 44.231C41.5811 44.231 41.9302 44.1577 42.2427 44.0112C42.5552 43.8647 42.8213 43.667 43.041 43.418C43.2607 43.1641 43.4292 42.8687 43.5464 42.5317C43.6685 42.1948 43.7295 41.8359 43.7295 41.4551V35.0684H45.2676V41.4551C45.2676 41.9678 45.1797 42.4536 45.0039 42.9126C44.833 43.3667 44.562 43.7646 44.1909 44.1064C43.8198 44.4482 43.3438 44.7192 42.7627 44.9194C42.1816 45.1196 41.4834 45.2197 40.668 45.2197C39.9404 45.2197 39.2959 45.1196 38.7344 44.9194C38.1777 44.7192 37.7114 44.4482 37.3354 44.1064C36.9595 43.7598 36.6738 43.3569 36.4785 42.8979C36.2881 42.439 36.1929 41.9507 36.1929 41.4331V35.0684ZM56.188 35.0684V35.918H52.7529V45H50.3213V35.918H46.8789V35.0684H56.188ZM63.1753 45.2197C62.3745 45.2197 61.6274 45.0903 60.9341 44.8315C60.2407 44.5728 59.6401 44.2114 59.1323 43.7476C58.6245 43.2788 58.2241 42.7246 57.9312 42.085C57.6431 41.4404 57.499 40.7349 57.499 39.9683C57.499 39.2163 57.6431 38.5278 57.9312 37.9028C58.2241 37.2729 58.6245 36.7334 59.1323 36.2842C59.6401 35.835 60.2407 35.4858 60.9341 35.2368C61.6274 34.9878 62.3745 34.8633 63.1753 34.8633C63.9761 34.8633 64.7207 34.9902 65.4092 35.2441C66.1025 35.4932 66.7031 35.8423 67.2109 36.2915C67.7236 36.7407 68.1265 37.2778 68.4194 37.9028C68.7124 38.5229 68.8589 39.2041 68.8589 39.9463C68.8589 40.4736 68.793 40.9717 68.6611 41.4404C68.5293 41.9043 68.3413 42.3315 68.0972 42.7222C67.853 43.1128 67.5601 43.4619 67.2183 43.7695C66.8765 44.0771 66.4932 44.3384 66.0684 44.5532C65.6484 44.7681 65.1943 44.9316 64.7061 45.0439C64.2178 45.1611 63.7075 45.2197 63.1753 45.2197ZM63.1753 44.3848C63.6587 44.3848 64.0859 44.2749 64.457 44.0552C64.8281 43.8306 65.1382 43.5229 65.3872 43.1323C65.6362 42.7417 65.8242 42.2778 65.9512 41.7407C66.083 41.1987 66.1489 40.6079 66.1489 39.9683C66.1489 39.3384 66.083 38.7622 65.9512 38.2397C65.8242 37.7173 65.6362 37.2681 65.3872 36.8921C65.1382 36.5161 64.8281 36.2231 64.457 36.0132C64.0859 35.8032 63.6587 35.6982 63.1753 35.6982C62.687 35.6982 62.2573 35.8032 61.8862 36.0132C61.5151 36.2231 61.2051 36.5161 60.9561 36.8921C60.707 37.2681 60.519 37.7173 60.3921 38.2397C60.2651 38.7622 60.2017 39.3384 60.2017 39.9683C60.2017 40.6079 60.2651 41.1987 60.3921 41.7407C60.519 42.2778 60.707 42.7417 60.9561 43.1323C61.2051 43.5229 61.5151 43.8306 61.8862 44.0552C62.2573 44.2749 62.687 44.3848 63.1753 44.3848ZM74.1177 35.0684H76.5566V41.4551C76.5566 41.8359 76.6152 42.1948 76.7324 42.5317C76.8545 42.8687 77.0254 43.1641 77.2451 43.418C77.4697 43.667 77.7383 43.8647 78.0508 44.0112C78.3682 44.1577 78.7246 44.231 79.1201 44.231C79.5059 44.231 79.855 44.1577 80.1675 44.0112C80.48 43.8647 80.7461 43.667 80.9658 43.418C81.1855 43.1641 81.354 42.8687 81.4712 42.5317C81.5933 42.1948 81.6543 41.8359 81.6543 41.4551V35.0684H83.1924V41.4551C83.1924 41.9678 83.1045 42.4536 82.9287 42.9126C82.7578 43.3667 82.4868 43.7646 82.1157 44.1064C81.7446 44.4482 81.2686 44.7192 80.6875 44.9194C80.1064 45.1196 79.4082 45.2197 78.5928 45.2197C77.8652 45.2197 77.2207 45.1196 76.6592 44.9194C76.1025 44.7192 75.6362 44.4482 75.2603 44.1064C74.8843 43.7598 74.5986 43.3569 74.4033 42.8979C74.2129 42.439 74.1177 41.9507 74.1177 41.4331V35.0684ZM88.1729 40.0269C88.1729 40.6714 88.2705 41.2402 88.4658 41.7334C88.6611 42.2266 88.9199 42.6416 89.2422 42.9785C89.5645 43.3105 89.9355 43.5645 90.3555 43.7402C90.7754 43.9111 91.2124 43.9966 91.6665 43.9966C92.0132 43.9966 92.3354 43.938 92.6333 43.8208C92.936 43.6987 93.2168 43.5352 93.4756 43.3301C93.7393 43.125 93.9858 42.8882 94.2153 42.6196C94.4448 42.3511 94.6646 42.0679 94.8745 41.77L95.8926 42.5171C95.6729 42.8687 95.4067 43.208 95.0942 43.5352C94.7866 43.8623 94.4399 44.1504 94.0542 44.3994C93.6685 44.6484 93.2485 44.8486 92.7944 45C92.3403 45.1465 91.8594 45.2197 91.3516 45.2197C90.4971 45.2197 89.7085 45.0952 88.9858 44.8462C88.2681 44.5972 87.6479 44.2456 87.1255 43.7915C86.603 43.3374 86.1953 42.793 85.9023 42.1582C85.6094 41.5186 85.4629 40.8081 85.4629 40.0269C85.4629 39.27 85.6021 38.5742 85.8804 37.9395C86.1587 37.3047 86.5493 36.7578 87.0522 36.2988C87.5601 35.835 88.1655 35.4736 88.8687 35.2148C89.5767 34.9561 90.3579 34.8267 91.2124 34.8267C91.7837 34.8267 92.3062 34.895 92.7798 35.0317C93.2534 35.1636 93.6831 35.3491 94.0688 35.5884C94.4595 35.8228 94.8062 36.106 95.1089 36.438C95.4165 36.7651 95.6875 37.1265 95.9219 37.522L94.8965 38.2397C94.6865 37.9419 94.457 37.6611 94.208 37.3975C93.9639 37.1338 93.7026 36.9043 93.4243 36.709C93.146 36.5088 92.853 36.3525 92.5454 36.2402C92.2378 36.123 91.918 36.0645 91.5859 36.0645C91.1318 36.0645 90.6973 36.1499 90.2822 36.3208C89.8721 36.4917 89.5107 36.7456 89.1982 37.0825C88.8857 37.4146 88.6367 37.8271 88.4512 38.3203C88.2656 38.8135 88.1729 39.3823 88.1729 40.0269ZM100.419 40.2686V45H97.98V35.0684H100.419V39.4189H104.411V35.0684H106.828V45H104.411V40.2686H100.419ZM110.709 35.0684L113.976 39.5435L117.045 35.0684H118.693L114.811 40.708V45H112.372V40.8545L108.161 35.0684H110.709ZM128.507 35.0684V35.918H125.072V45H122.641V35.918H119.198V35.0684H128.507ZM130.104 35.0684H132.536V45H130.104V35.0684ZM135.026 35.0684H137.465V43.9819H142.533V45H135.026V35.0684Z" fill="white"/>
</g>
<defs>
<clipPath id="clip0_4_2">
<rect width="168" height="52" fill="white"/>
</clipPath>
</defs>
</svg>
