<svg width="168" height="52" viewBox="0 0 168 52" fill="none" xmlns="http://www.w3.org/2000/svg">
<g clip-path="url(#clip0_33_91)">
<path fill-rule="evenodd" clip-rule="evenodd" d="M108.186 15.7923C101.833 15.8669 92.1066 15.5407 78.6837 15.3473C70.9533 15.236 63.6251 15.1427 59.6305 15.1385C49.0676 15.1099 40.3461 15.6658 33.1459 16.5168C28.9273 17.0155 25.236 17.6272 21.9974 18.2838C17.0049 19.296 13.1059 20.4453 10.0648 21.6017C1.99075 24.6717 0 27.7801 0 27.7801C0 27.7801 1.66677 24.4038 9.62329 20.8452C12.6309 19.5 16.538 18.1366 21.5878 16.9549C24.8501 16.1914 28.595 15.5216 32.8748 14.967C40.1375 14.0257 48.9548 13.4565 59.6305 13.4276C63.6318 13.4233 70.9732 13.4777 78.7177 13.5957C88.4197 13.7436 99.166 13.8832 105.038 13.6241C107.239 13.5263 109.107 12.2326 109.644 10.4341C110.125 8.82243 110.671 6.99735 110.874 6.31822C110.92 6.16431 111.099 6.06659 111.285 6.09472C113.27 6.39534 123.606 7.96133 125.71 8.2801C125.808 8.2949 125.894 8.34299 125.948 8.41306C126.002 8.48314 126.018 8.56892 125.995 8.64989C125.619 9.73253 123.863 13.341 116.799 14.9002C112.268 15.9003 111.078 15.7584 108.186 15.7923Z" fill="white"/>
<path fill-rule="evenodd" clip-rule="evenodd" d="M65.6581 12.3554C65.6581 12.3554 71.7123 7.89224 78.8579 4.56399C82.1724 3.01998 85.7282 1.74861 88.9912 1.20789C93.1476 0.557229 97.07 0.182485 100.793 0.0539866C107.273 -0.169716 113.144 0.321521 118.577 1.19072C126.413 2.44471 133.334 4.51366 139.873 6.48358C147.095 8.65946 156.197 10.557 160.32 10.6607C161.85 10.6992 164.137 10.5889 164.137 10.5889C164.117 12.3717 163.239 13.3293 162.257 14.1871C162.257 14.1871 146.549 10.3595 139.175 8.11427C132.735 6.15322 125.921 4.09146 118.203 2.81038C112.907 1.93121 107.183 1.43131 100.853 1.56637C97.2011 1.64434 93.3466 1.92094 89.2558 2.48289C86.0915 2.88883 82.6352 4.03171 79.3531 5.36771C72.0498 8.34048 65.6581 12.3554 65.6581 12.3554Z" fill="white"/>
<path fill-rule="evenodd" clip-rule="evenodd" d="M156.237 14.6932C153.981 13.8387 146.668 11.5056 146.668 11.5056C146.668 11.5056 156.481 13.7811 159.01 14.3521C161.041 14.811 164.009 15.5064 165.815 16.7556C167.622 18.0048 167.986 19.7489 167.986 19.7489C167.986 19.7489 161.078 19.9108 159.949 19.7514C159.168 19.6411 157.983 18.6236 157.989 18.6201C159.046 17.9714 160.645 16.3638 156.237 14.6932Z" fill="white"/>
<path d="M28.4306 38.4188H22.6407L22.2945 35.1083H17.7169L15.9599 38.4188H13.5602L20.8597 25.1968H26.7234L28.4306 38.4188ZM18.5331 33.5885H22.1209L21.5521 27.9247L18.5331 33.5885Z" fill="white"/>
<path d="M35.8537 33.6926C35.7712 33.9977 35.7059 34.2616 35.6561 34.4836C35.6063 34.7055 35.5813 34.9138 35.5813 35.1082C35.5813 35.5941 35.7841 35.9831 36.1879 36.2744C36.5917 36.5658 37.1897 36.7118 37.9818 36.7118C38.5592 36.7118 39.0334 36.6287 39.4046 36.4617C39.7758 36.2954 40.0808 36.0734 40.3205 35.7958C40.5593 35.5175 40.7492 35.1986 40.8892 34.8379C41.0293 34.4771 41.1496 34.0954 41.2484 33.6926L43.3516 25.1968H45.6034L43.4504 33.7339C43.2854 34.4004 43.0466 35.0251 42.733 35.6078C42.4194 36.1913 41.97 36.7046 41.3841 37.1485C40.7982 37.5932 40.0438 37.9438 39.1202 38.2005C38.1966 38.4571 37.0496 38.5858 35.681 38.5858C33.784 38.5858 32.3818 38.3255 31.4746 37.805C30.5673 37.2844 30.1136 36.4826 30.1136 35.3996C30.1136 34.9138 30.1875 34.2963 30.3362 33.5466C30.4848 32.7969 30.6747 31.9849 30.9049 31.1101L32.4145 25.1968H38.0317L35.8537 33.6926Z" fill="white"/>
<path d="M59.9051 26.7795H55.9211L52.9768 38.4188H47.632L50.5763 26.7795H46.6422L47.0881 25.1968H60.3252L59.9051 26.7795Z" fill="white"/>
<path d="M68.293 24.9886C69.7115 24.9886 70.8628 25.1412 71.7451 25.447C72.6275 25.7521 73.3243 26.2242 73.8355 26.8626C74.1654 27.2928 74.4214 27.7794 74.6027 28.3202C74.784 28.8617 74.8751 29.4863 74.8751 30.1941C74.8751 30.8051 74.8089 31.416 74.6775 32.0269C74.5451 32.6378 74.3596 33.2242 74.1207 33.7859C73.881 34.3484 73.5923 34.8762 73.2538 35.3686C72.9162 35.8616 72.5407 36.2954 72.1283 36.6699C71.3534 37.3777 70.4581 37.8744 69.4435 38.1586C68.4297 38.4434 67.1796 38.5858 65.6949 38.5858C64.2601 38.5858 63.1054 38.4608 62.2308 38.2106C61.3562 37.9612 60.6637 37.5585 60.1525 37.0032C59.7891 36.6143 59.5047 36.1219 59.2985 35.5247C59.0923 34.9283 58.9892 34.1785 58.9892 33.2762C58.9892 31.7356 59.3148 30.3575 59.9669 29.1429C60.6182 27.9283 61.5461 26.9667 62.7506 26.2589C63.4766 25.8288 64.2851 25.5092 65.1751 25.301C66.0661 25.0928 67.1057 24.9886 68.293 24.9886ZM65.4973 37.1283C65.8762 37.1283 66.2354 36.9859 66.573 36.701C66.9115 36.4169 67.2251 36.0352 67.5138 35.5558C67.8025 35.0772 68.0662 34.5321 68.3059 33.9219C68.5448 33.3109 68.7467 32.679 68.9116 32.0269C69.0766 31.3741 69.2046 30.7255 69.2957 30.0799C69.3859 29.4343 69.4314 28.8479 69.4314 28.3202C69.4314 27.5986 69.3447 27.1027 69.1711 26.8315C68.9984 26.5611 68.7467 26.4252 68.4168 26.4252C68.037 26.4252 67.6744 26.5648 67.3282 26.8417C66.982 27.12 66.6563 27.4909 66.3505 27.9558C66.0455 28.4214 65.7731 28.9557 65.5343 29.5594C65.2954 30.1631 65.0892 30.7841 64.9157 31.4232C64.7421 32.0616 64.6107 32.6928 64.5196 33.3174C64.4285 33.9421 64.3839 34.5183 64.3839 35.0461C64.3839 35.8371 64.487 36.3822 64.6932 36.6808C64.8994 36.9786 65.1674 37.1283 65.4973 37.1283Z" fill="white"/>
<path d="M84.8216 29.028C84.8714 28.8205 84.8963 28.5356 84.8963 28.1748C84.8963 27.9666 84.88 27.7613 84.8465 27.5603C84.8138 27.3593 84.7563 27.1786 84.6738 27.0188C84.5913 26.859 84.4676 26.7347 84.3026 26.6443C84.1377 26.5539 83.9229 26.5091 83.6591 26.5091C83.3618 26.5091 83.0895 26.5648 82.842 26.6754C82.5955 26.7867 82.3764 26.9291 82.1865 27.1027C81.9966 27.2755 81.8488 27.4772 81.7415 27.7063C81.6341 27.9355 81.5808 28.1748 81.5808 28.4243C81.5808 28.7858 81.6916 29.0627 81.915 29.2572C82.1375 29.4516 82.4305 29.6114 82.7931 29.7365C83.1556 29.8608 83.568 29.9657 84.0303 30.0488C84.4925 30.132 84.9702 30.2289 85.4651 30.3402C85.8775 30.4371 86.2898 30.5621 86.7022 30.7147C87.1146 30.868 87.4815 31.0726 87.8037 31.3292C88.125 31.5859 88.3853 31.9192 88.583 32.3284C88.7814 32.7383 88.8802 33.248 88.8802 33.859C88.8802 34.7338 88.674 35.4691 88.2616 36.0662C87.8492 36.6634 87.2796 37.1486 86.5545 37.5238C85.8285 37.8983 84.9668 38.1694 83.9684 38.3357C82.9701 38.502 81.8858 38.5858 80.7148 38.5858C79.5265 38.5858 78.5574 38.5193 77.8074 38.3877C77.0565 38.2562 76.4671 38.1137 76.0384 37.9612C75.5263 37.7804 75.1474 37.5722 74.9 37.3365L75.7411 34.4836H80.0962C80.0798 34.6087 80.0627 34.7786 80.0463 34.9941C80.03 35.2088 80.0214 35.3794 80.0214 35.5038C80.0214 35.6708 80.0463 35.8443 80.0962 36.0243C80.1451 36.2051 80.2242 36.3713 80.3307 36.5246C80.4381 36.6772 80.591 36.8015 80.7886 36.8991C80.9863 36.996 81.2346 37.0452 81.531 37.0452C81.8609 37.0452 82.1539 36.9823 82.409 36.8572C82.6651 36.7321 82.8798 36.5767 83.0525 36.3887C83.2261 36.2014 83.3575 35.9932 83.4486 35.764C83.5397 35.5348 83.5852 35.31 83.5852 35.0873C83.5852 34.7822 83.4984 34.5256 83.3249 34.3173C83.1522 34.1091 82.9168 33.932 82.6195 33.7859C82.3231 33.6406 81.9803 33.5155 81.5928 33.4114C81.2053 33.3073 80.805 33.1996 80.3926 33.089C79.9965 32.9914 79.5807 32.8735 79.1434 32.7347C78.706 32.5959 78.3065 32.4014 77.9431 32.152C77.5805 31.9018 77.279 31.5859 77.0401 31.2042C76.8004 30.8224 76.681 30.333 76.681 29.7365C76.681 28.8479 76.9491 28.1018 77.4852 27.4981C78.0213 26.8937 78.6983 26.405 79.5145 26.0297C80.3307 25.6552 81.226 25.3877 82.1994 25.2287C83.1728 25.0689 84.0964 24.9886 84.9702 24.9886C86.1249 24.9886 87.1189 25.1036 87.9523 25.3328C88.7849 25.5613 89.4163 25.8288 89.8451 26.1339L88.9292 29.028H84.8216Z" fill="white"/>
<path d="M92.938 25.1968H103.355L102.959 26.7795H97.9117L96.8721 30.7978H101.103L100.707 32.3602H96.476L95.3376 36.8159H100.386L100.015 38.4188H89.5976L92.938 25.1968Z" fill="white"/>
<path d="M117.459 28.3411C117.459 29.1602 117.187 29.9165 116.642 30.6106C116.098 31.3046 115.199 31.8324 113.945 32.1932L116.816 38.4188H111.298L109.12 32.6515H108.848L107.388 38.4188H102.043L105.384 25.1968H111.892C112.651 25.1968 113.368 25.2352 114.044 25.3118C114.72 25.3877 115.311 25.5403 115.814 25.7694C116.317 25.9986 116.717 26.3182 117.013 26.7274C117.311 27.1373 117.459 27.6745 117.459 28.3411ZM110.333 31.3191C110.761 31.3191 111.129 31.1969 111.434 30.9547C111.739 30.7111 111.986 30.4168 112.176 30.0698C112.366 29.7227 112.502 29.3511 112.584 28.9556C112.667 28.5594 112.708 28.216 112.708 27.9247C112.708 27.5639 112.634 27.2552 112.486 26.9985C112.337 26.7411 112.016 26.6132 111.521 26.6132H110.407L109.17 31.3191H110.333Z" fill="white"/>
<path d="M119.24 25.1968H124.882L125.724 34.1503L130.87 25.1968H133.319L125.996 38.4188H120.156L119.24 25.1968Z" fill="white"/>
<path d="M136.932 38.4188H131.588L134.929 25.1968H140.298L136.932 38.4188Z" fill="white"/>
<path d="M149.404 29.028C149.453 28.8205 149.478 28.5356 149.478 28.1748C149.478 27.9666 149.461 27.7613 149.428 27.5603C149.395 27.3593 149.338 27.1786 149.255 27.0188C149.173 26.859 149.049 26.7347 148.884 26.6443C148.719 26.5539 148.504 26.5091 148.24 26.5091C147.943 26.5091 147.672 26.5648 147.424 26.6754C147.177 26.7867 146.958 26.9291 146.768 27.1027C146.579 27.2755 146.43 27.4772 146.323 27.7063C146.215 27.9355 146.162 28.1748 146.162 28.4243C146.162 28.7858 146.273 29.0627 146.495 29.2572C146.719 29.4516 147.011 29.6114 147.374 29.7365C147.737 29.8608 148.149 29.9657 148.612 30.0488C149.073 30.132 149.552 30.2289 150.046 30.3402C150.459 30.4371 150.871 30.5621 151.284 30.7147C151.696 30.868 152.064 31.0726 152.385 31.3292C152.706 31.5859 152.967 31.9192 153.164 32.3284C153.363 32.7383 153.462 33.248 153.462 33.859C153.462 34.7338 153.255 35.4691 152.843 36.0662C152.431 36.6634 151.861 37.1486 151.135 37.5238C150.41 37.8983 149.547 38.1694 148.55 38.3357C147.551 38.502 146.467 38.5858 145.296 38.5858C144.108 38.5858 143.139 38.5193 142.389 38.3877C141.638 38.2562 141.048 38.1137 140.619 37.9612C140.108 37.7804 139.729 37.5722 139.481 37.3365L140.322 34.4836H144.678C144.66 34.6087 144.644 34.7786 144.628 34.9941C144.611 35.2088 144.603 35.3794 144.603 35.5038C144.603 35.6708 144.628 35.8443 144.678 36.0243C144.726 36.2051 144.806 36.3713 144.912 36.5246C145.019 36.6772 145.172 36.8015 145.37 36.8991C145.568 36.996 145.815 37.0452 146.112 37.0452C146.442 37.0452 146.735 36.9823 146.991 36.8572C147.246 36.7321 147.461 36.5767 147.634 36.3887C147.807 36.2014 147.94 35.9932 148.03 35.764C148.121 35.5348 148.167 35.31 148.167 35.0873C148.167 34.7822 148.08 34.5256 147.906 34.3173C147.734 34.1091 147.498 33.932 147.201 33.7859C146.904 33.6406 146.562 33.5155 146.174 33.4114C145.787 33.3073 145.386 33.1996 144.974 33.089C144.579 32.9914 144.162 32.8735 143.725 32.7347C143.287 32.5959 142.887 32.4014 142.524 32.152C142.162 31.9018 141.86 31.5859 141.621 31.2042C141.383 30.8224 141.262 30.333 141.262 29.7365C141.262 28.8479 141.53 28.1018 142.067 27.4981C142.603 26.8937 143.279 26.405 144.096 26.0297C144.912 25.6552 145.807 25.3877 146.781 25.2287C147.753 25.0689 148.678 24.9886 149.552 24.9886C150.706 24.9886 151.7 25.1036 152.534 25.3328C153.366 25.5613 153.998 25.8288 154.426 26.1339L153.511 29.028H149.404Z" fill="white"/>
<path d="M68.5454 51.956C70.0028 51.956 70.8254 51.1802 70.8254 49.9845V46.5272H70.3648V49.9768C70.3648 50.9671 69.7492 51.5914 68.5454 51.5914C67.3413 51.5914 66.7257 50.9671 66.7257 49.9768V46.5272H66.2654V49.9845C66.2654 51.1802 67.0877 51.956 68.5454 51.956Z" fill="white"/>
<path d="M77.5131 50.9515C77.3321 51.0887 76.6625 51.5914 75.5674 51.5914C74.0016 51.5914 72.8704 50.5707 72.8704 49.192C72.8704 47.8136 74.0651 46.7929 75.5401 46.7929C76.4903 46.7929 77.1599 47.2041 77.3773 47.3641L77.5401 47.0137C77.2416 46.8003 76.5446 46.4283 75.5401 46.4283C73.8027 46.4283 72.3918 47.6155 72.3918 49.192C72.3918 50.7688 73.7663 51.956 75.5674 51.956C76.7256 51.956 77.4949 51.4467 77.6668 51.2944L77.5131 50.9515Z" fill="white"/>
<path d="M79.2426 51.8571H79.703V49.3134H83.4416V51.8571H83.9023V46.5272H83.4416V48.949H79.703V46.5272H79.2426V51.8571Z" fill="white"/>
<path d="M87.1884 51.8571H87.6487V49.3216L89.6214 46.5272H89.1058L87.4231 48.9408L85.7584 46.5272H85.2245L87.1884 49.3216V51.8571Z" fill="white"/>
<path d="M92.4552 51.8571H92.9155V46.8841H94.7346V46.5272H90.6361V46.8841H92.4552V51.8571Z" fill="white"/>
<path d="M96.7438 46.5272H96.2834V51.8569H96.7438V46.5272Z" fill="white"/>
<path d="M98.7356 51.8571H101.721V51.5001H99.1959V46.5272H98.7356V51.8571Z" fill="white"/>
</g>
<defs>
<clipPath id="clip0_33_91">
<rect width="168" height="52" fill="white"/>
</clipPath>
</defs>
</svg>
