<svg width="168" height="52" viewBox="0 0 168 52" fill="none" xmlns="http://www.w3.org/2000/svg">
<g clip-path="url(#clip0_4_2)">
<mask id="mask0_4_2" style="mask-type:luminance" maskUnits="userSpaceOnUse" x="0" y="0" width="168" height="52">
<path d="M168 0H0V52H168V0Z" fill="white"/>
</mask>
<g mask="url(#mask0_4_2)">
<path fill-rule="evenodd" clip-rule="evenodd" d="M108.186 15.7923C101.833 15.8669 92.1066 15.5407 78.6837 15.3473C70.9533 15.236 63.6251 15.1427 59.6305 15.1385C49.0676 15.1099 40.3461 15.6658 33.1459 16.5168C28.9273 17.0155 25.236 17.6272 21.9974 18.2838C17.0049 19.296 13.1059 20.4453 10.0648 21.6017C1.99075 24.6717 0 27.7801 0 27.7801C0 27.7801 1.66677 24.4038 9.62329 20.8452C12.6309 19.5 16.538 18.1366 21.5878 16.9549C24.8501 16.1914 28.595 15.5216 32.8748 14.967C40.1375 14.0257 48.9548 13.4565 59.6305 13.4276C63.6318 13.4233 70.9732 13.4777 78.7177 13.5957C88.4197 13.7436 99.166 13.8832 105.038 13.6241C107.239 13.5263 109.107 12.2326 109.644 10.4341C110.125 8.82243 110.671 6.99735 110.874 6.31822C110.92 6.16431 111.099 6.06659 111.285 6.09472C113.27 6.39534 123.606 7.96133 125.71 8.2801C125.808 8.2949 125.894 8.34299 125.948 8.41306C126.002 8.48314 126.018 8.56892 125.995 8.64989C125.619 9.73253 123.863 13.341 116.799 14.9002C112.268 15.9003 111.078 15.7584 108.186 15.7923Z" fill="white"/>
<path fill-rule="evenodd" clip-rule="evenodd" d="M65.6581 12.3554C65.6581 12.3554 71.7123 7.89224 78.8579 4.56399C82.1724 3.01998 85.7282 1.74861 88.9912 1.20789C93.1476 0.557229 97.07 0.182485 100.793 0.0539865C107.273 -0.169716 113.144 0.321521 118.577 1.19072C126.413 2.44471 133.334 4.51366 139.873 6.48358C147.095 8.65946 156.197 10.557 160.32 10.6607C161.85 10.6992 164.137 10.5889 164.137 10.5889C164.117 12.3717 163.239 13.3293 162.257 14.1871C162.257 14.1871 146.549 10.3595 139.175 8.11427C132.735 6.15322 125.921 4.09146 118.203 2.81038C112.907 1.93121 107.183 1.43131 100.853 1.56637C97.2011 1.64434 93.3466 1.92094 89.2558 2.48289C86.0915 2.88883 82.6352 4.03171 79.3531 5.36771C72.0498 8.34048 65.6581 12.3554 65.6581 12.3554Z" fill="white"/>
<path fill-rule="evenodd" clip-rule="evenodd" d="M156.237 14.6932C153.981 13.8387 146.668 11.5056 146.668 11.5056C146.668 11.5056 156.481 13.7811 159.01 14.3521C161.041 14.811 164.009 15.5064 165.815 16.7556C167.622 18.0048 167.986 19.7489 167.986 19.7489C167.986 19.7489 161.078 19.9108 159.949 19.7514C159.168 19.6411 157.983 18.6236 157.989 18.6201C159.046 17.9714 160.645 16.3638 156.237 14.6932Z" fill="white"/>
</g>
<path d="M22.3208 30.7002C22.3208 30.4268 22.4136 30.1973 22.5991 30.0117C22.7944 29.8164 23.0288 29.7188 23.3022 29.7188H25.5435L25.1626 28.6348C25.0063 28.2344 24.8501 27.8584 24.6938 27.5068C24.5474 27.1455 24.3765 26.8184 24.1812 26.5254C24.0054 26.2324 23.8052 26.0762 23.5806 26.0566C23.3462 26.0762 23.1362 26.2324 22.9507 26.5254C22.7651 26.8184 22.5942 27.1455 22.438 27.5068C22.2915 27.8584 22.1401 28.2344 21.9839 28.6348L20.5923 32.4434C20.4946 32.6484 20.3677 32.8193 20.2114 32.9561C20.0649 33.083 19.8403 33.1465 19.5376 33.1465C19.2544 33.1465 19.02 33.0488 18.8345 32.8535C18.6587 32.6582 18.5806 32.4238 18.6001 32.1504C18.6099 32.0234 18.6392 31.9062 18.688 31.7988L20.2993 27.6387C20.7485 26.5449 21.1978 25.6611 21.647 24.9873C22.0864 24.3232 22.731 23.9863 23.5806 23.9766C24.4204 23.9863 25.0601 24.3232 25.4995 24.9873C25.9487 25.6416 26.3979 26.5254 26.8472 27.6387L28.4585 31.7988C28.5073 31.9062 28.5366 32.0234 28.5464 32.1504C28.5659 32.4238 28.4829 32.6582 28.2974 32.8535C28.1216 33.0488 27.8921 33.1465 27.6089 33.1465C27.2866 33.1465 27.0474 33.083 26.8911 32.9561C26.7446 32.8193 26.6226 32.6484 26.5249 32.4434L26.2466 31.6816H23.3022C23.0288 31.6816 22.7993 31.584 22.6138 31.3887C22.4185 31.2031 22.3208 30.9736 22.3208 30.7002ZM34.6841 33.3076C34.1763 33.3076 33.6733 33.249 33.1753 33.1318C32.687 33.0146 32.2183 32.8438 31.769 32.6191C31.3198 32.3848 30.9243 32.0771 30.5825 31.6963C30.2407 31.3154 30.0552 30.8613 30.0259 30.334V29.7188V25.0459C30.0259 24.7725 30.1235 24.5479 30.3188 24.3721C30.5239 24.1865 30.7632 24.0938 31.0366 24.0938C31.6226 24.1426 31.9399 24.46 31.9888 25.0459V29.8799C32.0083 30.1826 32.1206 30.4365 32.3257 30.6416C32.5405 30.8369 32.7749 30.9932 33.0288 31.1104C33.2925 31.2275 33.561 31.3154 33.8345 31.374C34.1177 31.4326 34.4009 31.4619 34.6841 31.4619C34.9673 31.4619 35.2456 31.4326 35.519 31.374C35.8022 31.3154 36.0708 31.2275 36.3247 31.1104C36.5884 30.9932 36.8228 30.8369 37.0278 30.6416C37.2427 30.4365 37.3599 30.1826 37.3794 29.8799V25.0459C37.3794 24.7725 37.4771 24.5479 37.6724 24.3721C37.8774 24.1865 38.1167 24.0938 38.3901 24.0938C38.9761 24.1426 39.2983 24.46 39.3569 25.0459V29.7188V30.334C39.3276 30.8613 39.1372 31.3154 38.7856 31.6963C38.4438 32.0771 38.0483 32.3848 37.5991 32.6191C37.1499 32.8438 36.6763 33.0146 36.1782 33.1318C35.6899 33.249 35.1919 33.3076 34.6841 33.3076ZM41.0269 25.3096C41.0269 25.0361 41.1196 24.8066 41.3052 24.6211C41.5005 24.4258 41.7349 24.3281 42.0083 24.3281H50.5337C50.8071 24.3281 51.0415 24.4209 51.2368 24.6064C51.4224 24.8018 51.5151 25.0361 51.5151 25.3096C51.5151 25.583 51.4175 25.8174 51.2222 26.0127C51.0366 26.1982 50.8071 26.291 50.5337 26.291H47.2671V32.2236C47.2085 32.8096 46.8862 33.127 46.3003 33.1758C46.0269 33.1758 45.7876 33.0879 45.5825 32.9121C45.3872 32.7266 45.2896 32.4971 45.2896 32.2236V26.291H42.0083C41.7349 26.291 41.5054 26.1934 41.3198 25.998C41.1245 25.8125 41.0269 25.583 41.0269 25.3096ZM60.9194 24.3281C61.4175 24.3379 61.8618 24.4941 62.2524 24.7969C62.6431 25.0996 62.9556 25.4609 63.1899 25.8809C63.4341 26.3008 63.6147 26.7451 63.7319 27.2139C63.8491 27.6826 63.9077 28.1611 63.9077 28.6494C63.9077 29.2939 63.8052 29.9287 63.6001 30.5537C63.4048 31.1689 63.0776 31.7158 62.6187 32.1943C62.1694 32.6729 61.603 32.9316 60.9194 32.9707H55.8071C55.1235 32.9414 54.5522 32.6875 54.0933 32.209C53.6343 31.7305 53.3071 31.1787 53.1118 30.5537C52.9263 29.9287 52.8335 29.2939 52.8335 28.6494C52.8335 28.0049 52.9312 27.375 53.1265 26.7598C53.3218 26.1348 53.644 25.583 54.0933 25.1045C54.5522 24.6162 55.1235 24.3574 55.8071 24.3281H56.0854H60.6411H60.9194ZM60.4214 31.0078C60.7925 30.9883 61.1001 30.8516 61.3442 30.5977C61.5981 30.334 61.7788 30.0312 61.8862 29.6895C61.9937 29.3477 62.0474 29.001 62.0474 28.6494C62.0474 28.2979 61.9888 27.9561 61.8716 27.624C61.7642 27.2822 61.5884 26.9795 61.3442 26.7158C61.1001 26.4521 60.7925 26.3105 60.4214 26.291H56.2612C55.8901 26.3105 55.5825 26.4521 55.3384 26.7158C55.0942 26.9795 54.9136 27.2822 54.7964 27.624C54.689 27.9561 54.6353 28.2979 54.6353 28.6494C54.6353 29.001 54.689 29.3477 54.7964 29.6895C54.9038 30.0312 55.0796 30.334 55.3237 30.5977C55.5776 30.8516 55.8901 30.9883 56.2612 31.0078H60.4214ZM77.6772 33.3076C77.1694 33.3076 76.6665 33.249 76.1685 33.1318C75.6802 33.0146 75.2114 32.8438 74.7622 32.6191C74.313 32.3848 73.9175 32.0771 73.5757 31.6963C73.2339 31.3154 73.0483 30.8613 73.019 30.334V29.7188V25.0459C73.019 24.7725 73.1167 24.5479 73.312 24.3721C73.5171 24.1865 73.7563 24.0938 74.0298 24.0938C74.6157 24.1426 74.9331 24.46 74.9819 25.0459V29.8799C75.0015 30.1826 75.1138 30.4365 75.3188 30.6416C75.5337 30.8369 75.7681 30.9932 76.022 31.1104C76.2856 31.2275 76.5542 31.3154 76.8276 31.374C77.1108 31.4326 77.394 31.4619 77.6772 31.4619C77.9604 31.4619 78.2388 31.4326 78.5122 31.374C78.7954 31.3154 79.064 31.2275 79.3179 31.1104C79.5815 30.9932 79.8159 30.8369 80.021 30.6416C80.2358 30.4365 80.353 30.1826 80.3726 29.8799V25.0459C80.3726 24.7725 80.4702 24.5479 80.6655 24.3721C80.8706 24.1865 81.1099 24.0938 81.3833 24.0938C81.9692 24.1426 82.2915 24.46 82.3501 25.0459V29.7188V30.334C82.3208 30.8613 82.1304 31.3154 81.7788 31.6963C81.437 32.0771 81.0415 32.3848 80.5923 32.6191C80.1431 32.8438 79.6694 33.0146 79.1714 33.1318C78.6831 33.249 78.1851 33.3076 77.6772 33.3076ZM87.6382 26.291C87.2671 26.3105 86.9546 26.4521 86.7007 26.7158C86.4565 26.9795 86.2808 27.2822 86.1733 27.624C86.0659 27.9561 86.0122 28.2979 86.0122 28.6494C86.0122 29.001 86.061 29.3477 86.1587 29.6895C86.2661 30.0312 86.4468 30.334 86.7007 30.5977C86.9546 30.8516 87.2671 30.9883 87.6382 31.0078H92.4722C93.0874 31.0664 93.4243 31.4033 93.4829 32.0186C93.4731 32.292 93.3706 32.5215 93.1753 32.707C92.98 32.8828 92.7456 32.9707 92.4722 32.9707H87.7993H87.1255C86.4419 32.9316 85.8804 32.6729 85.4409 32.1943C85.0015 31.7061 84.6841 31.1543 84.4888 30.5391C84.3032 29.9238 84.2104 29.2939 84.2104 28.6494C84.2104 28.1709 84.2642 27.6973 84.3716 27.2285C84.479 26.7598 84.645 26.3154 84.8696 25.8955C85.104 25.4658 85.4116 25.0996 85.7925 24.7969C86.1831 24.4941 86.6274 24.3379 87.1255 24.3281H87.4038H92.4722C93.0874 24.3867 93.4243 24.7236 93.4829 25.3389C93.4829 25.6123 93.3804 25.8418 93.1753 26.0273C92.98 26.2031 92.7456 26.291 92.4722 26.291H87.6382ZM95.8413 24.0938C96.105 24.1035 96.3296 24.2012 96.5151 24.3867C96.7007 24.5625 96.7983 24.7822 96.8081 25.0459V27.4922H101.569V25.0459C101.579 24.7725 101.681 24.5479 101.876 24.3721C102.072 24.1865 102.306 24.0938 102.58 24.0938C102.843 24.1035 103.068 24.2012 103.253 24.3867C103.439 24.5625 103.537 24.7822 103.546 25.0459V32.2236C103.488 32.8096 103.166 33.127 102.58 33.1758C102.306 33.1758 102.067 33.0879 101.862 32.9121C101.667 32.7266 101.569 32.4971 101.569 32.2236V29.4551H96.8081V32.2236C96.7495 32.8096 96.4272 33.127 95.8413 33.1758C95.5679 33.1758 95.3286 33.0879 95.1235 32.9121C94.9282 32.7266 94.8306 32.4971 94.8306 32.2236V25.0459C94.8403 24.7725 94.9429 24.5479 95.1382 24.3721C95.3335 24.1865 95.5679 24.0938 95.8413 24.0938ZM106.344 24.0938C106.618 24.0938 106.852 24.1865 107.047 24.3721C107.243 24.5479 107.345 24.7725 107.355 25.0459V25.3242C107.345 25.7246 107.37 26.0957 107.428 26.4375C107.497 26.7695 107.653 27.0674 107.897 27.3311C108.141 27.5947 108.449 27.7363 108.82 27.7559H112.936V25.0752C112.936 24.8018 113.034 24.5771 113.229 24.4014C113.434 24.2158 113.673 24.123 113.947 24.123C114.533 24.1719 114.855 24.4893 114.914 25.0752V28.4736C114.914 29.2549 114.806 29.9922 114.591 30.6855C114.396 31.3008 114.074 31.8232 113.625 32.2529C113.185 32.6729 112.624 32.9023 111.94 32.9414H106.667C106.403 32.9316 106.178 32.8389 105.993 32.6631C105.817 32.4775 105.724 32.2529 105.714 31.9893C105.714 31.7158 105.802 31.4814 105.978 31.2861C106.164 31.0908 106.393 30.9883 106.667 30.9785H111.442C111.813 30.959 112.121 30.8174 112.365 30.5537C112.589 30.3096 112.741 30.0312 112.819 29.7188H108.322C107.638 29.6797 107.072 29.4502 106.623 29.0303C106.183 28.6006 105.866 28.0781 105.67 27.4629C105.485 26.8477 105.387 26.1934 105.377 25.5V25.0459C105.387 24.7822 105.485 24.5625 105.67 24.3867C105.856 24.2012 106.081 24.1035 106.344 24.0938ZM116.554 25.3096C116.554 25.0361 116.647 24.8066 116.833 24.6211C117.028 24.4258 117.262 24.3281 117.536 24.3281H126.061C126.334 24.3281 126.569 24.4209 126.764 24.6064C126.95 24.8018 127.042 25.0361 127.042 25.3096C127.042 25.583 126.945 25.8174 126.75 26.0127C126.564 26.1982 126.334 26.291 126.061 26.291H122.794V32.2236C122.736 32.8096 122.414 33.127 121.828 33.1758C121.554 33.1758 121.315 33.0879 121.11 32.9121C120.915 32.7266 120.817 32.4971 120.817 32.2236V26.291H117.536C117.262 26.291 117.033 26.1934 116.847 25.998C116.652 25.8125 116.554 25.583 116.554 25.3096ZM128.273 31.9893C128.273 31.7158 128.366 31.4863 128.551 31.3008C128.747 31.1055 128.981 31.0078 129.254 31.0078H132.067V26.291H129.254C128.981 26.291 128.751 26.1934 128.566 25.998C128.371 25.8125 128.273 25.583 128.273 25.3096C128.273 25.0361 128.366 24.8066 128.551 24.6211C128.747 24.4258 128.981 24.3281 129.254 24.3281H136.842C137.116 24.3281 137.35 24.4209 137.545 24.6064C137.731 24.8018 137.824 25.0361 137.824 25.3096C137.824 25.583 137.726 25.8174 137.531 26.0127C137.345 26.1982 137.116 26.291 136.842 26.291H134.044V31.0078H136.842C137.116 31.0078 137.35 31.1006 137.545 31.2861C137.731 31.4814 137.824 31.7158 137.824 31.9893C137.824 32.2627 137.726 32.4971 137.531 32.6924C137.345 32.8779 137.116 32.9707 136.842 32.9707H129.254C128.981 32.9707 128.751 32.873 128.566 32.6777C128.371 32.4922 128.273 32.2627 128.273 31.9893ZM140.314 24.0938C140.587 24.0938 140.822 24.1865 141.017 24.3721C141.212 24.5479 141.315 24.7725 141.325 25.0459V28.5762C141.315 28.9766 141.339 29.3477 141.398 29.6895C141.466 30.0215 141.623 30.3193 141.867 30.583C142.111 30.8467 142.418 30.9883 142.79 31.0078H147.477C147.75 31.0176 147.975 31.1201 148.151 31.3154C148.336 31.5107 148.429 31.7451 148.429 32.0186C148.419 32.2822 148.322 32.5068 148.136 32.6924C147.96 32.8682 147.741 32.9609 147.477 32.9707H142.292C141.608 32.9316 141.042 32.7021 140.592 32.2822C140.153 31.8525 139.835 31.3301 139.64 30.7148C139.455 30.0996 139.357 29.4453 139.347 28.752V25.0459C139.357 24.7822 139.455 24.5625 139.64 24.3867C139.826 24.2012 140.05 24.1035 140.314 24.0938Z" fill="white"/>
</g>
<defs>
<clipPath id="clip0_4_2">
<rect width="168" height="52" fill="white"/>
</clipPath>
</defs>
</svg>
